<svg width="288" height="121" viewBox="0 0 288 121" fill="none" xmlns="http://www.w3.org/2000/svg">
<rect x="68" y="81" width="150" height="40" rx="11" fill="#18CE40"/>
<path d="M82.26 108V95.04H89.937V96.921H84.141V100.575H88.857V102.465H84.141V108H82.26ZM96.9678 108.27C95.6718 108.27 94.5678 107.988 93.6558 107.424C92.7438 106.854 92.0448 106.062 91.5588 105.048C91.0788 104.034 90.8388 102.858 90.8388 101.52C90.8388 100.182 91.0788 99.006 91.5588 97.992C92.0448 96.978 92.7438 96.189 93.6558 95.625C94.5678 95.055 95.6718 94.77 96.9678 94.77C98.2578 94.77 99.3588 95.055 100.271 95.625C101.189 96.189 101.888 96.978 102.368 97.992C102.848 99.006 103.088 100.182 103.088 101.52C103.088 102.858 102.848 104.034 102.368 105.048C101.888 106.062 101.189 106.854 100.271 107.424C99.3588 107.988 98.2578 108.27 96.9678 108.27ZM96.9678 106.479C97.8858 106.491 98.6478 106.29 99.2538 105.876C99.8658 105.456 100.325 104.874 100.631 104.13C100.937 103.38 101.09 102.51 101.09 101.52C101.09 100.53 100.937 99.666 100.631 98.928C100.325 98.184 99.8658 97.605 99.2538 97.191C98.6478 96.777 97.8858 96.567 96.9678 96.561C96.0498 96.549 95.2848 96.75 94.6728 97.164C94.0668 97.578 93.6108 98.16 93.3048 98.91C92.9988 99.66 92.8428 100.53 92.8368 101.52C92.8308 102.51 92.9808 103.377 93.2868 104.121C93.5928 104.859 94.0518 105.435 94.6638 105.849C95.2818 106.263 96.0498 106.473 96.9678 106.479ZM104.883 108V95.04H110.121C110.247 95.04 110.403 95.046 110.589 95.058C110.775 95.064 110.952 95.082 111.12 95.112C111.84 95.226 112.44 95.472 112.92 95.85C113.406 96.228 113.769 96.705 114.009 97.281C114.249 97.857 114.369 98.493 114.369 99.189C114.369 100.221 114.105 101.112 113.577 101.862C113.049 102.606 112.257 103.071 111.201 103.257L110.436 103.347H106.764V108H104.883ZM112.461 108L109.905 102.726L111.804 102.24L114.612 108H112.461ZM106.764 101.565H110.049C110.169 101.565 110.301 101.559 110.445 101.547C110.595 101.535 110.736 101.514 110.868 101.484C111.252 101.394 111.561 101.229 111.795 100.989C112.029 100.743 112.197 100.461 112.299 100.143C112.401 99.825 112.452 99.507 112.452 99.189C112.452 98.871 112.401 98.556 112.299 98.244C112.197 97.926 112.029 97.647 111.795 97.407C111.561 97.161 111.252 96.993 110.868 96.903C110.736 96.867 110.595 96.843 110.445 96.831C110.301 96.819 110.169 96.813 110.049 96.813H106.764V101.565ZM120.194 108V95.04H125.288C126.11 95.04 126.8 95.208 127.358 95.544C127.916 95.88 128.336 96.315 128.618 96.849C128.9 97.377 129.041 97.935 129.041 98.523C129.041 99.237 128.864 99.849 128.51 100.359C128.162 100.869 127.691 101.217 127.097 101.403L127.079 100.962C127.907 101.166 128.543 101.565 128.987 102.159C129.431 102.747 129.653 103.434 129.653 104.22C129.653 104.982 129.5 105.645 129.194 106.209C128.894 106.773 128.453 107.214 127.871 107.532C127.295 107.844 126.596 108 125.774 108H120.194ZM122.102 106.209H125.486C125.912 106.209 126.293 106.128 126.629 105.966C126.971 105.804 127.238 105.573 127.43 105.273C127.628 104.967 127.727 104.604 127.727 104.184C127.727 103.794 127.64 103.443 127.466 103.131C127.298 102.813 127.052 102.564 126.728 102.384C126.41 102.198 126.035 102.105 125.603 102.105H122.102V106.209ZM122.102 100.332H125.261C125.609 100.332 125.921 100.263 126.197 100.125C126.479 99.981 126.701 99.777 126.863 99.513C127.031 99.243 127.115 98.919 127.115 98.541C127.115 98.037 126.947 97.623 126.611 97.299C126.275 96.975 125.825 96.813 125.261 96.813H122.102V100.332ZM136.61 108.27C135.596 108.27 134.699 108.063 133.919 107.649C133.145 107.229 132.539 106.644 132.101 105.894C131.663 105.138 131.444 104.25 131.444 103.23V95.049L133.352 95.04V103.131C133.352 103.683 133.445 104.169 133.631 104.589C133.817 105.009 134.066 105.36 134.378 105.642C134.69 105.924 135.038 106.137 135.422 106.281C135.812 106.425 136.208 106.497 136.61 106.497C137.018 106.497 137.414 106.425 137.798 106.281C138.188 106.131 138.539 105.915 138.851 105.633C139.163 105.351 139.409 105 139.589 104.58C139.775 104.16 139.868 103.677 139.868 103.131V95.04H141.776V103.23C141.776 104.244 141.557 105.129 141.119 105.885C140.681 106.641 140.072 107.229 139.292 107.649C138.518 108.063 137.624 108.27 136.61 108.27ZM148.446 108.27C147.516 108.27 146.676 108.111 145.926 107.793C145.182 107.469 144.567 107.01 144.081 106.416C143.601 105.816 143.289 105.105 143.145 104.283L145.107 103.986C145.305 104.778 145.719 105.396 146.349 105.84C146.979 106.278 147.714 106.497 148.554 106.497C149.076 106.497 149.556 106.416 149.994 106.254C150.432 106.086 150.783 105.849 151.047 105.543C151.317 105.231 151.452 104.859 151.452 104.427C151.452 104.193 151.41 103.986 151.326 103.806C151.248 103.626 151.137 103.47 150.993 103.338C150.855 103.2 150.684 103.083 150.48 102.987C150.282 102.885 150.063 102.798 149.823 102.726L146.502 101.745C146.178 101.649 145.848 101.526 145.512 101.376C145.176 101.22 144.867 101.019 144.585 100.773C144.309 100.521 144.084 100.212 143.91 99.846C143.736 99.474 143.649 99.024 143.649 98.496C143.649 97.698 143.853 97.023 144.261 96.471C144.675 95.913 145.233 95.493 145.935 95.211C146.637 94.923 147.423 94.779 148.293 94.779C149.169 94.791 149.952 94.947 150.642 95.247C151.338 95.547 151.914 95.979 152.37 96.543C152.832 97.101 153.15 97.779 153.324 98.577L151.308 98.919C151.218 98.433 151.026 98.016 150.732 97.668C150.438 97.314 150.078 97.044 149.652 96.858C149.226 96.666 148.764 96.567 148.266 96.561C147.786 96.549 147.345 96.621 146.943 96.777C146.547 96.933 146.229 97.152 145.989 97.434C145.755 97.716 145.638 98.04 145.638 98.406C145.638 98.766 145.743 99.057 145.953 99.279C146.163 99.501 146.421 99.678 146.727 99.81C147.039 99.936 147.348 100.041 147.654 100.125L150.048 100.8C150.348 100.884 150.687 100.998 151.065 101.142C151.449 101.28 151.818 101.475 152.172 101.727C152.532 101.979 152.829 102.315 153.063 102.735C153.297 103.149 153.414 103.671 153.414 104.301C153.414 104.955 153.282 105.531 153.018 106.029C152.754 106.521 152.391 106.935 151.929 107.271C151.473 107.601 150.945 107.85 150.345 108.018C149.745 108.186 149.112 108.27 148.446 108.27ZM155.512 108V95.04H157.393V108H155.512ZM160.096 108V95.04H162.004L168.385 104.67V95.04H170.293V108H168.385L162.004 98.361V108H160.096ZM172.805 108V95.04H181.085V96.813H174.686V100.449H180.005V102.222H174.686V106.227H181.085V108H172.805ZM187.698 108.27C186.768 108.27 185.928 108.111 185.178 107.793C184.434 107.469 183.819 107.01 183.333 106.416C182.853 105.816 182.541 105.105 182.397 104.283L184.359 103.986C184.557 104.778 184.971 105.396 185.601 105.84C186.231 106.278 186.966 106.497 187.806 106.497C188.328 106.497 188.808 106.416 189.246 106.254C189.684 106.086 190.035 105.849 190.299 105.543C190.569 105.231 190.704 104.859 190.704 104.427C190.704 104.193 190.662 103.986 190.578 103.806C190.5 103.626 190.389 103.47 190.245 103.338C190.107 103.2 189.936 103.083 189.732 102.987C189.534 102.885 189.315 102.798 189.075 102.726L185.754 101.745C185.43 101.649 185.1 101.526 184.764 101.376C184.428 101.22 184.119 101.019 183.837 100.773C183.561 100.521 183.336 100.212 183.162 99.846C182.988 99.474 182.901 99.024 182.901 98.496C182.901 97.698 183.105 97.023 183.513 96.471C183.927 95.913 184.485 95.493 185.187 95.211C185.889 94.923 186.675 94.779 187.545 94.779C188.421 94.791 189.204 94.947 189.894 95.247C190.59 95.547 191.166 95.979 191.622 96.543C192.084 97.101 192.402 97.779 192.576 98.577L190.56 98.919C190.47 98.433 190.278 98.016 189.984 97.668C189.69 97.314 189.33 97.044 188.904 96.858C188.478 96.666 188.016 96.567 187.518 96.561C187.038 96.549 186.597 96.621 186.195 96.777C185.799 96.933 185.481 97.152 185.241 97.434C185.007 97.716 184.89 98.04 184.89 98.406C184.89 98.766 184.995 99.057 185.205 99.279C185.415 99.501 185.673 99.678 185.979 99.81C186.291 99.936 186.6 100.041 186.906 100.125L189.3 100.8C189.6 100.884 189.939 100.998 190.317 101.142C190.701 101.28 191.07 101.475 191.424 101.727C191.784 101.979 192.081 102.315 192.315 102.735C192.549 103.149 192.666 103.671 192.666 104.301C192.666 104.955 192.534 105.531 192.27 106.029C192.006 106.521 191.643 106.935 191.181 107.271C190.725 107.601 190.197 107.85 189.597 108.018C188.997 108.186 188.364 108.27 187.698 108.27ZM199.546 108.27C198.616 108.27 197.776 108.111 197.026 107.793C196.282 107.469 195.667 107.01 195.181 106.416C194.701 105.816 194.389 105.105 194.245 104.283L196.207 103.986C196.405 104.778 196.819 105.396 197.449 105.84C198.079 106.278 198.814 106.497 199.654 106.497C200.176 106.497 200.656 106.416 201.094 106.254C201.532 106.086 201.883 105.849 202.147 105.543C202.417 105.231 202.552 104.859 202.552 104.427C202.552 104.193 202.51 103.986 202.426 103.806C202.348 103.626 202.237 103.47 202.093 103.338C201.955 103.2 201.784 103.083 201.58 102.987C201.382 102.885 201.163 102.798 200.923 102.726L197.602 101.745C197.278 101.649 196.948 101.526 196.612 101.376C196.276 101.22 195.967 101.019 195.685 100.773C195.409 100.521 195.184 100.212 195.01 99.846C194.836 99.474 194.749 99.024 194.749 98.496C194.749 97.698 194.953 97.023 195.361 96.471C195.775 95.913 196.333 95.493 197.035 95.211C197.737 94.923 198.523 94.779 199.393 94.779C200.269 94.791 201.052 94.947 201.742 95.247C202.438 95.547 203.014 95.979 203.47 96.543C203.932 97.101 204.25 97.779 204.424 98.577L202.408 98.919C202.318 98.433 202.126 98.016 201.832 97.668C201.538 97.314 201.178 97.044 200.752 96.858C200.326 96.666 199.864 96.567 199.366 96.561C198.886 96.549 198.445 96.621 198.043 96.777C197.647 96.933 197.329 97.152 197.089 97.434C196.855 97.716 196.738 98.04 196.738 98.406C196.738 98.766 196.843 99.057 197.053 99.279C197.263 99.501 197.521 99.678 197.827 99.81C198.139 99.936 198.448 100.041 198.754 100.125L201.148 100.8C201.448 100.884 201.787 100.998 202.165 101.142C202.549 101.28 202.918 101.475 203.272 101.727C203.632 101.979 203.929 102.315 204.163 102.735C204.397 103.149 204.514 103.671 204.514 104.301C204.514 104.955 204.382 105.531 204.118 106.029C203.854 106.521 203.491 106.935 203.029 107.271C202.573 107.601 202.045 107.85 201.445 108.018C200.845 108.186 200.212 108.27 199.546 108.27Z" fill="white"/>
<path fill-rule="evenodd" clip-rule="evenodd" d="M32.0478 53.0737H2.0769V4.82959H11.8365V44.0755H32.0478V53.0737ZM130.161 21.8569C132.583 19.2267 136.252 18.1884 139.505 18.1884C148.711 18.1884 153.694 25.9407 153.694 36.0464C153.694 47.4671 147.396 53.8351 139.505 53.8351C135.975 53.8351 132.306 52.3815 130.161 50.0282V67.1939H120.747V18.9498H130.161V21.8569ZM129.261 35.9772C129.261 41.3761 131.476 45.5983 137.013 45.5983C141.928 45.5983 144.35 42.2759 144.35 35.9772C144.35 29.6784 141.997 26.4252 137.152 26.4252C131.337 26.4252 129.261 30.509 129.261 35.9772ZM157.462 25.1101C161.615 20.4034 167.291 18.1884 173.382 18.1884C182.726 18.1884 188.471 23.3105 188.471 31.4781V53.0737H179.888L179.196 49.1284C176.773 52.5892 172.966 53.8351 169.506 53.8351C162.099 53.8351 156.77 49.0591 156.77 42.3451C156.77 38.3305 158.569 35.4234 161.684 33.8314C163.899 32.724 166.668 32.2395 170.129 32.2395H179.127V31.4781C179.127 28.3633 176.843 26.356 172.966 26.356C169.921 26.356 167.014 27.6711 164.245 30.7859L157.462 25.1101ZM166.114 42.4835C166.114 44.56 167.844 46.0828 171.028 46.0828C175.389 46.0828 179.057 43.1065 179.127 39.1611H171.444C169.506 39.1611 168.19 39.438 167.36 40.061C166.529 40.6147 166.114 41.4453 166.114 42.4835ZM205.731 21.9954C207.877 19.7112 211.476 18.1884 215.214 18.1884C223.105 18.1884 229.265 24.6948 229.265 35.9772C229.265 46.2212 224.143 53.8351 215.076 53.8351C211.822 53.8351 208.154 52.7968 205.731 50.1666V53.0737H196.318V4.82959H205.731V21.9954ZM204.831 36.0464C204.831 41.0992 207.046 45.0446 212.722 45.0446C217.706 45.0446 219.921 41.9298 219.921 36.0464C219.921 30.2322 217.706 26.7713 212.584 26.7713C206.908 26.7713 204.831 31.132 204.831 36.0464ZM249.022 52.7276C247.014 53.489 245.076 53.8351 243.484 53.8351C238.708 53.8351 235.04 50.9972 235.04 44.6293V4.82959H244.384V43.6602C244.384 45.2522 245.215 45.6675 246.599 45.6675C247.291 45.6675 248.122 45.5291 249.022 45.3214V52.7276ZM268.286 18.1884C278.945 18.1884 284.275 25.9407 284.275 35.9079C284.275 36.9462 284.206 37.9152 284.067 39.1611H261.157C261.572 42.7604 263.995 45.3214 268.909 45.3214C271.747 45.3214 274.446 44.3524 276.592 41.7914L283.098 47.5364C279.43 51.6202 274.723 53.8351 268.84 53.8351C256.658 53.8351 251.812 45.1138 251.812 36.1848C251.812 27.4635 256.519 18.1884 268.286 18.1884ZM268.217 26.0099C263.441 26.0099 261.503 29.2631 261.087 32.0318H275.346C275.208 28.2941 272.093 26.0099 268.217 26.0099ZM38.6546 41.3889C40.5885 48.6483 46.9405 54.1255 54.5125 55.0817C57.8449 55.4876 61.3407 55.0094 64.5095 53.6762C66.6369 52.7778 68.6151 51.4014 70.9657 49.1844L73.0335 47.2138L69.2699 43.5477L65.5211 39.8962L63.6467 41.6786C61.683 43.5623 60.85 44.0984 59.0946 44.6057C57.711 45.0113 55.6729 44.939 54.2747 44.4462C51.4483 43.4463 49.4399 41.2293 48.8447 38.4763C48.5771 37.2302 48.5771 36.4478 48.8447 35.2016C49.4399 32.463 51.4631 30.2316 54.2747 29.2318C55.6729 28.7391 57.711 28.6667 59.0946 29.0724C59.4376 29.1727 59.7197 29.25 59.9931 29.35C61.4989 29.9005 62.7531 31.1391 72.5722 40.6787C82.3162 50.1406 83.5064 51.2274 84.8897 52.1258C91.6435 56.4584 100.316 56.212 106.713 51.4883C114.345 45.8516 116.472 35.4335 111.593 27.5075C106.654 19.4801 96.5825 16.3068 87.7757 20.0017C85.6483 20.9001 83.6701 22.2766 81.3195 24.4936L79.2516 26.4642L83.0153 30.1301L86.7641 33.7816L88.6385 31.9993C89.9626 30.7387 90.7659 30.0867 91.4054 29.7679C94.8569 28.0726 98.5611 28.6232 101.209 31.2459C104.496 34.4916 104.452 39.2587 101.135 42.4901C99.4387 44.142 97.728 44.8518 95.4072 44.8518C93.9048 44.8663 92.8337 44.6057 91.4054 43.9101C90.6171 43.5332 89.0254 42.0409 79.713 32.9991C69.969 23.5372 68.7788 22.4505 67.3955 21.5521C58.2021 15.6547 46.0331 18.4658 40.5438 27.7828C38.1192 31.8834 37.4498 36.81 38.6546 41.3889Z" fill="#464646"/>
</svg>
