<svg width="383" height="100" viewBox="0 0 83 19" fill="none" xmlns="http://www.w3.org/2000/svg">
<path fill-rule="evenodd" clip-rule="evenodd" d="M9.2601 14H0.600098V0.0599976H3.4201V11.4H9.2601V14ZM37.6095 4.98C38.3095 4.22 39.3695 3.92 40.3095 3.92C42.9695 3.92 44.4095 6.16 44.4095 9.08C44.4095 12.38 42.5895 14.22 40.3095 14.22C39.2895 14.22 38.2295 13.8 37.6095 13.12V18.08H34.8895V4.14H37.6095V4.98ZM37.3495 9.06C37.3495 10.62 37.9895 11.84 39.5895 11.84C41.0095 11.84 41.7095 10.88 41.7095 9.06C41.7095 7.24 41.0295 6.3 39.6295 6.3C37.9495 6.3 37.3495 7.48 37.3495 9.06ZM45.4981 5.92C46.6981 4.56 48.3381 3.92 50.0981 3.92C52.7981 3.92 54.4581 5.4 54.4581 7.76V14H51.9781L51.7781 12.86C51.0781 13.86 49.9781 14.22 48.9781 14.22C46.8381 14.22 45.2981 12.84 45.2981 10.9C45.2981 9.74 45.8181 8.9 46.7181 8.44C47.3581 8.12 48.1581 7.98 49.1581 7.98H51.7581V7.76C51.7581 6.86 51.0981 6.28 49.9781 6.28C49.0981 6.28 48.2581 6.66 47.4581 7.56L45.4981 5.92ZM47.9981 10.94C47.9981 11.54 48.4981 11.98 49.4181 11.98C50.6781 11.98 51.7381 11.12 51.7581 9.98H49.5381C48.9781 9.98 48.5981 10.06 48.3581 10.24C48.1181 10.4 47.9981 10.64 47.9981 10.94ZM59.4454 5.02C60.0654 4.36 61.1054 3.92 62.1854 3.92C64.4654 3.92 66.2454 5.8 66.2454 9.06C66.2454 12.02 64.7654 14.22 62.1454 14.22C61.2054 14.22 60.1454 13.92 59.4454 13.16V14H56.7254V0.0599976H59.4454V5.02ZM59.1854 9.08C59.1854 10.54 59.8254 11.68 61.4654 11.68C62.9054 11.68 63.5454 10.78 63.5454 9.08C63.5454 7.4 62.9054 6.4 61.4254 6.4C59.7854 6.4 59.1854 7.66 59.1854 9.08ZM71.954 13.9C71.374 14.12 70.814 14.22 70.354 14.22C68.974 14.22 67.914 13.4 67.914 11.56V0.0599976H70.614V11.28C70.614 11.74 70.854 11.86 71.254 11.86C71.454 11.86 71.694 11.82 71.954 11.76V13.9ZM77.5204 3.92C80.6004 3.92 82.1404 6.16 82.1404 9.04C82.1404 9.34 82.1204 9.62 82.0804 9.98H75.4604C75.5804 11.02 76.2804 11.76 77.7004 11.76C78.5204 11.76 79.3004 11.48 79.9204 10.74L81.8004 12.4C80.7404 13.58 79.3804 14.22 77.6804 14.22C74.1604 14.22 72.7604 11.7 72.7604 9.12C72.7604 6.6 74.1204 3.92 77.5204 3.92ZM77.5004 6.18C76.1204 6.18 75.5604 7.12 75.4404 7.92H79.5604C79.5204 6.84 78.6204 6.18 77.5004 6.18ZM11.1691 10.6237C11.7279 12.7213 13.5633 14.3039 15.7512 14.5802C16.7141 14.6975 17.7242 14.5593 18.6398 14.1741C19.2545 13.9145 19.8261 13.5168 20.5053 12.8762L21.1028 12.3068L20.0153 11.2475L18.9321 10.1924L18.3905 10.7074C17.8231 11.2517 17.5824 11.4066 17.0752 11.5532C16.6754 11.6704 16.0865 11.6495 15.6825 11.5071C14.8658 11.2182 14.2855 10.5776 14.1135 9.78213C14.0362 9.42207 14.0362 9.19598 14.1135 8.83591C14.2855 8.0446 14.8701 7.39983 15.6825 7.11094C16.0865 6.96859 16.6754 6.94766 17.0752 7.06489C17.1743 7.09386 17.2558 7.1162 17.3348 7.1451C17.7699 7.30416 18.1323 7.66206 20.9695 10.4185C23.785 13.1525 24.1289 13.4665 24.5286 13.7261C26.4801 14.978 28.9861 14.9068 30.8344 13.5419C33.0395 11.9132 33.6542 8.9029 32.2443 6.61271C30.8172 4.29321 27.9072 3.3763 25.3625 4.44394C24.7478 4.70352 24.1762 5.10127 23.497 5.74185L22.8995 6.31126L23.987 7.37052L25.0702 8.4256L25.6118 7.91062C25.9944 7.54637 26.2265 7.35796 26.4113 7.26585C27.4086 6.776 28.4789 6.93509 29.244 7.69291C30.1939 8.63076 30.181 10.0082 29.2225 10.9419C28.7325 11.4192 28.2382 11.6243 27.5676 11.6243C27.1335 11.6285 26.824 11.5532 26.4113 11.3522C26.1835 11.2433 25.7236 10.8121 23.0328 8.19951C20.2173 5.46552 19.8734 5.15151 19.4737 4.89193C16.8173 3.18789 13.3011 4.00013 11.715 6.69226C11.0144 7.87713 10.821 9.30065 11.1691 10.6237Z" fill="#18CE40"/>
</svg>
