<svg width="95" height="100" viewBox="0 0 95 100" fill="none" xmlns="http://www.w3.org/2000/svg">
<path fill-rule="evenodd" clip-rule="evenodd" d="M53.6858 83.6468C47.2452 85.2914 40.9893 87.857 34.9452 90.3882C33.6457 90.9376 33.0056 92.4284 33.603 93.6631C34.1143 94.9487 35.6068 95.5326 36.8196 95.0333C42.6751 92.5753 48.7313 90.066 54.8785 88.5134C56.1918 88.1881 57.0188 86.8193 56.7012 85.4692C56.3841 84.12 54.9996 83.3224 53.6858 83.6468Z" fill="#18CE40" stroke="#18CE40" stroke-width="5"/>
<path fill-rule="evenodd" clip-rule="evenodd" d="M57.7541 51.8957C43.5785 47.9429 28.9536 45.8118 14.8102 41.5148C13.5268 41.0918 12.1142 41.8451 11.7187 43.16C11.3236 44.4758 12.0294 45.8974 13.3994 46.2703C27.5583 50.5942 42.1981 52.7512 56.3892 56.7309C57.7472 57.0831 59.1395 56.2954 59.5216 54.9571C59.8175 53.6696 59.1121 52.2478 57.7541 51.8957Z" fill="#18CE40" stroke="#18CE40" stroke-width="5"/>
<path fill-rule="evenodd" clip-rule="evenodd" d="M54.255 7.23235C57.5228 12.2924 60.7901 17.3527 64.0584 22.4135C64.7474 23.6069 66.3192 23.9281 67.4981 23.1701C68.6765 22.4112 68.9555 20.8956 68.266 19.7014C64.9932 14.6327 61.7214 9.5646 58.4491 4.49679C57.6735 3.35341 56.1056 3.03812 54.9307 3.80307C53.8424 4.51802 53.4799 6.08984 54.255 7.23235Z" fill="#18CE40" stroke="#18CE40" stroke-width="5"/>
</svg>
